# xmcd
#
# Track frame offsets: 
#        150
#        12196
#        25164
#        39845
#        57936
#        70192
#        81921
#        93771
#        106247
#        116215
#        126694
#        136865
#        147072
#        158022
#        168951
#        181716
#        192962
#        203401
#        216042
#        225123
#        234214
#        244755
#        258914
#        272939
#        284014
#
# Disc length: 3936 seconds
#
# Revision: 0
# Processed by: cddbd v1.5.2PL0 Copyright (c) Steve Scherf et al.
# Submitted via: ExactAudioCopy v0.99pb5
#
DISCID=4c0f5e19
DTITLE=The Stanley Brothers - Songs Of Tragedy And Redemption
DYEAR=1950
DGENRE=Country
TTITLE0=Mother No Longer Awaits Me At Home
TTITLE1=Little Glass Of Wine
TTITLE2=The White Dove
TTITLE3=Pretty Polly
TTITLE4=The Lonesome River
TTITLE5=Man Of Constant Sorrow
TTITLE6=This Weary Heart You Stole Away
TTITLE7=(Say) Won't You Be Mine
TTITLE8=Blue Moon Of Kentucky
TTITLE9=Memories Of Mother
TTITLE10=Angel Band
TTITLE11=Lonesome And Blue
TTITLE12=Orange Blossom Special
TTITLE13=Nobody's Love Is Like Mine
TTITLE14=The Cry From The Cross
TTITLE15=If That's The Way You Feel
TTITLE16=Gonna Paint The Town
TTITLE17=No School Bus In Heaven
TTITLE18=Ridin' That Midnight Train
TTITLE19=Highway Of Regret
TTITLE20=Wings Of Angels
TTITLE21=The Angel Of Death
TTITLE22=Rank Stranger
TTITLE23=Gathering Flowers For The Master's Bouquet
TTITLE24=In Heaven We'll Never Grow Old
EXTD=
EXTT0=
EXTT1=
EXTT2=
EXTT3=
EXTT4=
EXTT5=
EXTT6=
EXTT7=
EXTT8=
EXTT9=
EXTT10=
EXTT11=
EXTT12=
EXTT13=
EXTT14=
EXTT15=
EXTT16=
EXTT17=
EXTT18=
EXTT19=
EXTT20=
EXTT21=
EXTT22=
EXTT23=
EXTT24=
PLAYORDER=
